<mxfile host="app.diagrams.net" modified="2024-06-05T09:05:52.260Z" agent="Mozilla/5.0 (Windows NT 10.0; Win64; x64; rv:126.0) Gecko/20100101 Firefox/126.0" etag="_YBhbSSpjpAqrdzBer4u" version="24.4.6" type="device">
  <diagram name="Page-1" id="9J45ojJ4jzPwwJ6lb38C">
    <mxGraphModel dx="2924" dy="1134" grid="1" gridSize="10" guides="1" tooltips="1" connect="1" arrows="1" fold="1" page="1" pageScale="1" pageWidth="850" pageHeight="1100" math="0" shadow="0">
      <root>
        <mxCell id="0" />
        <mxCell id="1" parent="0" />
        <mxCell id="3YO-DfvYfgbbWXlIfVjV-82" value="" style="rounded=1;whiteSpace=wrap;html=1;arcSize=7;fillColor=#d5e8d4;strokeColor=#82b366;" parent="1" vertex="1">
          <mxGeometry x="-50" y="90" width="930" height="120" as="geometry" />
        </mxCell>
        <mxCell id="3YO-DfvYfgbbWXlIfVjV-1" value="" style="rounded=1;whiteSpace=wrap;html=1;strokeColor=#d6b656;fillColor=#fff2cc;shadow=0;glass=0;arcSize=2;" parent="1" vertex="1">
          <mxGeometry x="110" y="230" width="610" height="420" as="geometry" />
        </mxCell>
        <mxCell id="3YO-DfvYfgbbWXlIfVjV-44" style="edgeStyle=orthogonalEdgeStyle;rounded=0;orthogonalLoop=1;jettySize=auto;html=1;exitX=0;exitY=0.5;exitDx=0;exitDy=0;strokeColor=#B3B3B3;endArrow=none;endFill=0;strokeWidth=2;" parent="1" edge="1">
          <mxGeometry relative="1" as="geometry">
            <mxPoint x="185" y="630" as="targetPoint" />
            <mxPoint x="185" y="305" as="sourcePoint" />
          </mxGeometry>
        </mxCell>
        <mxCell id="3YO-DfvYfgbbWXlIfVjV-39" style="edgeStyle=orthogonalEdgeStyle;rounded=0;orthogonalLoop=1;jettySize=auto;html=1;exitX=0.5;exitY=1;exitDx=0;exitDy=0;entryX=0.5;entryY=0;entryDx=0;entryDy=0;strokeWidth=2;" parent="1" source="3YO-DfvYfgbbWXlIfVjV-5" target="3YO-DfvYfgbbWXlIfVjV-11" edge="1">
          <mxGeometry relative="1" as="geometry" />
        </mxCell>
        <mxCell id="3YO-DfvYfgbbWXlIfVjV-45" style="edgeStyle=orthogonalEdgeStyle;rounded=0;orthogonalLoop=1;jettySize=auto;html=1;exitX=0;exitY=0.5;exitDx=0;exitDy=0;strokeColor=#B3B3B3;endArrow=none;endFill=0;strokeWidth=2;" parent="1" edge="1">
          <mxGeometry relative="1" as="geometry">
            <mxPoint x="235" y="630" as="targetPoint" />
            <mxPoint x="235" y="305" as="sourcePoint" />
          </mxGeometry>
        </mxCell>
        <mxCell id="3YO-DfvYfgbbWXlIfVjV-5" value="&lt;font style=&quot;font-size: 22px;&quot;&gt;down0&lt;/font&gt;" style="rounded=1;whiteSpace=wrap;html=1;rotation=-90;fillColor=#ffe6cc;strokeColor=#d79b00;" parent="1" vertex="1">
          <mxGeometry x="162.5" y="290.5" width="105" height="30" as="geometry" />
        </mxCell>
        <mxCell id="3YO-DfvYfgbbWXlIfVjV-40" style="edgeStyle=orthogonalEdgeStyle;rounded=0;orthogonalLoop=1;jettySize=auto;html=1;exitX=0.5;exitY=1;exitDx=0;exitDy=0;entryX=0.5;entryY=0;entryDx=0;entryDy=0;strokeWidth=2;" parent="1" source="3YO-DfvYfgbbWXlIfVjV-7" target="3YO-DfvYfgbbWXlIfVjV-12" edge="1">
          <mxGeometry relative="1" as="geometry" />
        </mxCell>
        <mxCell id="3YO-DfvYfgbbWXlIfVjV-46" style="edgeStyle=orthogonalEdgeStyle;rounded=0;orthogonalLoop=1;jettySize=auto;html=1;exitX=0;exitY=0.5;exitDx=0;exitDy=0;strokeColor=#B3B3B3;endArrow=none;endFill=0;strokeWidth=2;" parent="1" edge="1">
          <mxGeometry relative="1" as="geometry">
            <mxPoint x="285" y="630" as="targetPoint" />
            <mxPoint x="285" y="395" as="sourcePoint" />
          </mxGeometry>
        </mxCell>
        <mxCell id="3YO-DfvYfgbbWXlIfVjV-70" style="edgeStyle=orthogonalEdgeStyle;rounded=0;orthogonalLoop=1;jettySize=auto;html=1;exitX=0.5;exitY=1;exitDx=0;exitDy=0;entryX=0.5;entryY=0;entryDx=0;entryDy=0;strokeWidth=2;" parent="1" target="3YO-DfvYfgbbWXlIfVjV-8" edge="1">
          <mxGeometry relative="1" as="geometry">
            <mxPoint x="277.5" y="365.0000000000001" as="sourcePoint" />
            <mxPoint x="295" y="425.0000000000001" as="targetPoint" />
            <Array as="points">
              <mxPoint x="285" y="365" />
              <mxPoint x="285" y="425" />
            </Array>
          </mxGeometry>
        </mxCell>
        <mxCell id="3YO-DfvYfgbbWXlIfVjV-7" value="&lt;font style=&quot;font-size: 22px;&quot;&gt;down1&lt;/font&gt;" style="rounded=1;whiteSpace=wrap;html=1;rotation=-90;fillColor=#ffe6cc;strokeColor=#d79b00;" parent="1" vertex="1">
          <mxGeometry x="213" y="350" width="105" height="30" as="geometry" />
        </mxCell>
        <mxCell id="3YO-DfvYfgbbWXlIfVjV-41" style="edgeStyle=orthogonalEdgeStyle;rounded=0;orthogonalLoop=1;jettySize=auto;html=1;exitX=0.5;exitY=1;exitDx=0;exitDy=0;entryX=0.5;entryY=0;entryDx=0;entryDy=0;strokeWidth=2;" parent="1" source="3YO-DfvYfgbbWXlIfVjV-8" target="3YO-DfvYfgbbWXlIfVjV-13" edge="1">
          <mxGeometry relative="1" as="geometry" />
        </mxCell>
        <mxCell id="3YO-DfvYfgbbWXlIfVjV-52" style="edgeStyle=orthogonalEdgeStyle;rounded=0;orthogonalLoop=1;jettySize=auto;html=1;exitX=0;exitY=0.5;exitDx=0;exitDy=0;strokeColor=#B3B3B3;endArrow=none;endFill=0;strokeWidth=2;" parent="1" edge="1">
          <mxGeometry relative="1" as="geometry">
            <mxPoint x="335" y="630" as="targetPoint" />
            <mxPoint x="335" y="485" as="sourcePoint" />
          </mxGeometry>
        </mxCell>
        <mxCell id="3YO-DfvYfgbbWXlIfVjV-8" value="&lt;div&gt;&lt;font style=&quot;font-size: 22px;&quot;&gt;down2&lt;/font&gt;&lt;/div&gt;" style="rounded=1;whiteSpace=wrap;html=1;rotation=-90;fillColor=#ffe6cc;strokeColor=#d79b00;" parent="1" vertex="1">
          <mxGeometry x="262.5" y="410" width="105" height="30" as="geometry" />
        </mxCell>
        <mxCell id="3YO-DfvYfgbbWXlIfVjV-42" style="edgeStyle=orthogonalEdgeStyle;rounded=0;orthogonalLoop=1;jettySize=auto;html=1;exitX=0.5;exitY=1;exitDx=0;exitDy=0;entryX=0.5;entryY=0;entryDx=0;entryDy=0;strokeWidth=2;" parent="1" source="3YO-DfvYfgbbWXlIfVjV-9" target="3YO-DfvYfgbbWXlIfVjV-14" edge="1">
          <mxGeometry relative="1" as="geometry" />
        </mxCell>
        <mxCell id="3YO-DfvYfgbbWXlIfVjV-53" style="edgeStyle=orthogonalEdgeStyle;rounded=0;orthogonalLoop=1;jettySize=auto;html=1;strokeColor=#B3B3B3;endArrow=none;endFill=0;strokeWidth=2;" parent="1" edge="1">
          <mxGeometry relative="1" as="geometry">
            <mxPoint x="385" y="630" as="targetPoint" />
            <mxPoint x="385" y="550" as="sourcePoint" />
          </mxGeometry>
        </mxCell>
        <mxCell id="3YO-DfvYfgbbWXlIfVjV-68" style="edgeStyle=orthogonalEdgeStyle;rounded=0;orthogonalLoop=1;jettySize=auto;html=1;exitX=0.5;exitY=1;exitDx=0;exitDy=0;entryX=0.5;entryY=0;entryDx=0;entryDy=0;strokeWidth=2;" parent="1" target="3YO-DfvYfgbbWXlIfVjV-10" edge="1">
          <mxGeometry relative="1" as="geometry">
            <mxPoint x="385" y="485" as="sourcePoint" />
            <mxPoint x="405" y="550" as="targetPoint" />
            <Array as="points">
              <mxPoint x="385" y="550" />
            </Array>
          </mxGeometry>
        </mxCell>
        <mxCell id="3YO-DfvYfgbbWXlIfVjV-9" value="&lt;font style=&quot;font-size: 22px;&quot;&gt;down3&lt;/font&gt;" style="rounded=1;whiteSpace=wrap;html=1;rotation=-90;fillColor=#ffe6cc;strokeColor=#d79b00;" parent="1" vertex="1">
          <mxGeometry x="312.5" y="470" width="105" height="30" as="geometry" />
        </mxCell>
        <mxCell id="3YO-DfvYfgbbWXlIfVjV-54" style="edgeStyle=orthogonalEdgeStyle;rounded=0;orthogonalLoop=1;jettySize=auto;html=1;strokeColor=#B3B3B3;endArrow=none;endFill=0;strokeWidth=2;" parent="1" edge="1">
          <mxGeometry relative="1" as="geometry">
            <mxPoint x="435" y="630" as="targetPoint" />
            <mxPoint x="435" y="551" as="sourcePoint" />
          </mxGeometry>
        </mxCell>
        <mxCell id="3YO-DfvYfgbbWXlIfVjV-10" value="&lt;font style=&quot;font-size: 22px;&quot;&gt;mid&lt;/font&gt;" style="rounded=1;whiteSpace=wrap;html=1;rotation=-90;fillColor=#ffe6cc;strokeColor=#d79b00;" parent="1" vertex="1">
          <mxGeometry x="362.5" y="535" width="105" height="30" as="geometry" />
        </mxCell>
        <mxCell id="3YO-DfvYfgbbWXlIfVjV-58" style="edgeStyle=orthogonalEdgeStyle;rounded=0;orthogonalLoop=1;jettySize=auto;html=1;exitX=0;exitY=0.5;exitDx=0;exitDy=0;strokeColor=#B3B3B3;endArrow=none;endFill=0;strokeWidth=2;" parent="1" edge="1">
          <mxGeometry relative="1" as="geometry">
            <mxPoint x="635" y="630" as="targetPoint" />
            <mxPoint x="635" y="305" as="sourcePoint" />
          </mxGeometry>
        </mxCell>
        <mxCell id="3YO-DfvYfgbbWXlIfVjV-11" value="&lt;font style=&quot;font-size: 22px;&quot;&gt;up3&lt;/font&gt;" style="rounded=1;whiteSpace=wrap;html=1;rotation=-90;fillColor=#ffe6cc;strokeColor=#d79b00;" parent="1" vertex="1">
          <mxGeometry x="562.5" y="290.5" width="105" height="30" as="geometry" />
        </mxCell>
        <mxCell id="3YO-DfvYfgbbWXlIfVjV-57" style="edgeStyle=orthogonalEdgeStyle;rounded=0;orthogonalLoop=1;jettySize=auto;html=1;strokeColor=#B3B3B3;endArrow=none;endFill=0;strokeWidth=2;" parent="1" edge="1">
          <mxGeometry relative="1" as="geometry">
            <mxPoint x="585" y="630" as="targetPoint" />
            <mxPoint x="585" y="360" as="sourcePoint" />
          </mxGeometry>
        </mxCell>
        <mxCell id="3YO-DfvYfgbbWXlIfVjV-88" style="edgeStyle=orthogonalEdgeStyle;rounded=0;orthogonalLoop=1;jettySize=auto;html=1;exitX=0.5;exitY=1;exitDx=0;exitDy=0;entryX=0.5;entryY=0;entryDx=0;entryDy=0;strokeWidth=2;" parent="1" source="3YO-DfvYfgbbWXlIfVjV-12" target="3YO-DfvYfgbbWXlIfVjV-11" edge="1">
          <mxGeometry relative="1" as="geometry">
            <mxPoint x="585.0000000000002" y="365" as="sourcePoint" />
            <mxPoint x="605.0000000000002" y="305.5" as="targetPoint" />
            <Array as="points">
              <mxPoint x="585" y="365" />
              <mxPoint x="585" y="305" />
            </Array>
          </mxGeometry>
        </mxCell>
        <mxCell id="3YO-DfvYfgbbWXlIfVjV-12" value="&lt;font style=&quot;font-size: 22px;&quot;&gt;up2&lt;/font&gt;" style="rounded=1;whiteSpace=wrap;html=1;rotation=-90;fillColor=#ffe6cc;strokeColor=#d79b00;" parent="1" vertex="1">
          <mxGeometry x="512.5" y="350" width="105" height="30" as="geometry" />
        </mxCell>
        <mxCell id="3YO-DfvYfgbbWXlIfVjV-56" style="edgeStyle=orthogonalEdgeStyle;rounded=0;orthogonalLoop=1;jettySize=auto;html=1;strokeColor=#B3B3B3;endArrow=none;endFill=0;strokeWidth=2;" parent="1" edge="1">
          <mxGeometry relative="1" as="geometry">
            <mxPoint x="535" y="630" as="targetPoint" />
            <mxPoint x="535" y="420" as="sourcePoint" />
          </mxGeometry>
        </mxCell>
        <mxCell id="3YO-DfvYfgbbWXlIfVjV-69" style="edgeStyle=orthogonalEdgeStyle;rounded=0;orthogonalLoop=1;jettySize=auto;html=1;exitX=0.5;exitY=1;exitDx=0;exitDy=0;strokeWidth=2;" parent="1" source="3YO-DfvYfgbbWXlIfVjV-13" edge="1">
          <mxGeometry relative="1" as="geometry">
            <mxPoint x="530" y="425" as="sourcePoint" />
            <mxPoint x="550" y="365" as="targetPoint" />
            <Array as="points">
              <mxPoint x="535" y="425" />
              <mxPoint x="535" y="365" />
            </Array>
          </mxGeometry>
        </mxCell>
        <mxCell id="3YO-DfvYfgbbWXlIfVjV-13" value="&lt;div&gt;&lt;font style=&quot;font-size: 22px;&quot;&gt;up1&lt;/font&gt;&lt;/div&gt;" style="rounded=1;whiteSpace=wrap;html=1;rotation=-90;fillColor=#ffe6cc;strokeColor=#d79b00;" parent="1" vertex="1">
          <mxGeometry x="462.5" y="410" width="105" height="30" as="geometry" />
        </mxCell>
        <mxCell id="3YO-DfvYfgbbWXlIfVjV-55" style="edgeStyle=orthogonalEdgeStyle;rounded=0;orthogonalLoop=1;jettySize=auto;html=1;strokeColor=#B3B3B3;endArrow=none;endFill=0;strokeWidth=2;" parent="1" edge="1">
          <mxGeometry relative="1" as="geometry">
            <mxPoint x="485" y="630" as="targetPoint" />
            <mxPoint x="485" y="480" as="sourcePoint" />
          </mxGeometry>
        </mxCell>
        <mxCell id="3YO-DfvYfgbbWXlIfVjV-14" value="&lt;font style=&quot;font-size: 22px;&quot;&gt;up0&lt;/font&gt;" style="rounded=1;whiteSpace=wrap;html=1;rotation=-90;fillColor=#ffe6cc;strokeColor=#d79b00;" parent="1" vertex="1">
          <mxGeometry x="412.5" y="470" width="105" height="30" as="geometry" />
        </mxCell>
        <mxCell id="3YO-DfvYfgbbWXlIfVjV-59" style="edgeStyle=orthogonalEdgeStyle;rounded=0;orthogonalLoop=1;jettySize=auto;html=1;exitX=0;exitY=0.5;exitDx=0;exitDy=0;strokeColor=#B3B3B3;endArrow=none;endFill=0;strokeWidth=2;" parent="1" edge="1">
          <mxGeometry relative="1" as="geometry">
            <mxPoint x="685" y="630" as="targetPoint" />
            <mxPoint x="685" y="305" as="sourcePoint" />
          </mxGeometry>
        </mxCell>
        <mxCell id="3YO-DfvYfgbbWXlIfVjV-63" style="edgeStyle=orthogonalEdgeStyle;rounded=0;orthogonalLoop=1;jettySize=auto;html=1;exitX=0.5;exitY=1;exitDx=0;exitDy=0;strokeWidth=2;entryX=0;entryY=0.5;entryDx=0;entryDy=0;" parent="1" source="3YO-DfvYfgbbWXlIfVjV-15" target="3YO-DfvYfgbbWXlIfVjV-80" edge="1">
          <mxGeometry relative="1" as="geometry">
            <mxPoint x="735" y="304.81818181818176" as="targetPoint" />
          </mxGeometry>
        </mxCell>
        <mxCell id="3YO-DfvYfgbbWXlIfVjV-15" value="&lt;font style=&quot;font-size: 22px;&quot;&gt;conv-out&lt;/font&gt;" style="rounded=1;whiteSpace=wrap;html=1;rotation=-90;fillColor=#ffe6cc;strokeColor=#d79b00;" parent="1" vertex="1">
          <mxGeometry x="612.5" y="290.5" width="105" height="30" as="geometry" />
        </mxCell>
        <mxCell id="3YO-DfvYfgbbWXlIfVjV-33" style="edgeStyle=orthogonalEdgeStyle;rounded=0;orthogonalLoop=1;jettySize=auto;html=1;exitX=0.5;exitY=1;exitDx=0;exitDy=0;entryX=0.5;entryY=0;entryDx=0;entryDy=0;strokeWidth=2;" parent="1" target="3YO-DfvYfgbbWXlIfVjV-13" edge="1">
          <mxGeometry relative="1" as="geometry">
            <mxPoint x="480" y="486" as="sourcePoint" />
            <mxPoint x="500.0000000000002" y="395.9999999999999" as="targetPoint" />
            <Array as="points">
              <mxPoint x="485" y="486" />
              <mxPoint x="485" y="425" />
            </Array>
          </mxGeometry>
        </mxCell>
        <mxCell id="3YO-DfvYfgbbWXlIfVjV-50" value="" style="endArrow=classic;html=1;rounded=0;strokeColor=#B3B3B3;strokeWidth=2;entryX=0;entryY=0.5;entryDx=0;entryDy=0;" parent="1" target="3YO-DfvYfgbbWXlIfVjV-85" edge="1" source="8m9qlbFvRUvodFBZdbfK-1">
          <mxGeometry width="50" height="50" relative="1" as="geometry">
            <mxPoint x="184" y="629" as="sourcePoint" />
            <mxPoint x="764" y="629" as="targetPoint" />
          </mxGeometry>
        </mxCell>
        <mxCell id="3YO-DfvYfgbbWXlIfVjV-23" style="edgeStyle=orthogonalEdgeStyle;rounded=0;orthogonalLoop=1;jettySize=auto;html=1;exitX=0.5;exitY=1;exitDx=0;exitDy=0;entryX=0.5;entryY=0;entryDx=0;entryDy=0;strokeWidth=2;" parent="1" source="3YO-DfvYfgbbWXlIfVjV-5" target="3YO-DfvYfgbbWXlIfVjV-7" edge="1">
          <mxGeometry relative="1" as="geometry">
            <Array as="points">
              <mxPoint x="235" y="306" />
              <mxPoint x="235" y="365" />
            </Array>
          </mxGeometry>
        </mxCell>
        <mxCell id="3YO-DfvYfgbbWXlIfVjV-31" style="edgeStyle=orthogonalEdgeStyle;rounded=0;orthogonalLoop=1;jettySize=auto;html=1;exitX=0.5;exitY=1;exitDx=0;exitDy=0;entryX=0.5;entryY=0;entryDx=0;entryDy=0;strokeWidth=2;" parent="1" source="3YO-DfvYfgbbWXlIfVjV-10" target="3YO-DfvYfgbbWXlIfVjV-14" edge="1">
          <mxGeometry relative="1" as="geometry">
            <Array as="points">
              <mxPoint x="435" y="550" />
              <mxPoint x="435" y="485" />
            </Array>
          </mxGeometry>
        </mxCell>
        <mxCell id="3YO-DfvYfgbbWXlIfVjV-36" style="edgeStyle=orthogonalEdgeStyle;rounded=0;orthogonalLoop=1;jettySize=auto;html=1;exitX=0.5;exitY=1;exitDx=0;exitDy=0;entryX=0.5;entryY=0;entryDx=0;entryDy=0;strokeWidth=2;" parent="1" source="3YO-DfvYfgbbWXlIfVjV-11" target="3YO-DfvYfgbbWXlIfVjV-15" edge="1">
          <mxGeometry relative="1" as="geometry" />
        </mxCell>
        <mxCell id="3YO-DfvYfgbbWXlIfVjV-65" style="edgeStyle=orthogonalEdgeStyle;rounded=0;orthogonalLoop=1;jettySize=auto;html=1;exitX=1;exitY=0.5;exitDx=0;exitDy=0;strokeWidth=2;entryX=0.5;entryY=0;entryDx=0;entryDy=0;" parent="1" source="3YO-DfvYfgbbWXlIfVjV-71" target="3YO-DfvYfgbbWXlIfVjV-64" edge="1">
          <mxGeometry relative="1" as="geometry">
            <mxPoint x="80" y="304.7948717948718" as="sourcePoint" />
          </mxGeometry>
        </mxCell>
        <mxCell id="3YO-DfvYfgbbWXlIfVjV-64" value="&lt;font style=&quot;font-size: 22px;&quot;&gt;conv-in&lt;/font&gt;" style="rounded=1;whiteSpace=wrap;html=1;rotation=-90;fillColor=#ffe6cc;strokeColor=#d79b00;" parent="1" vertex="1">
          <mxGeometry x="112" y="290" width="105" height="30" as="geometry" />
        </mxCell>
        <mxCell id="3YO-DfvYfgbbWXlIfVjV-19" style="edgeStyle=orthogonalEdgeStyle;rounded=0;orthogonalLoop=1;jettySize=auto;html=1;exitX=0.5;exitY=1;exitDx=0;exitDy=0;entryX=0.502;entryY=-0.002;entryDx=0;entryDy=0;entryPerimeter=0;strokeWidth=2;" parent="1" source="3YO-DfvYfgbbWXlIfVjV-64" target="3YO-DfvYfgbbWXlIfVjV-5" edge="1">
          <mxGeometry relative="1" as="geometry">
            <mxPoint x="180" y="305.21000000000004" as="sourcePoint" />
            <mxPoint x="202.31000000000006" y="304.7900000000001" as="targetPoint" />
          </mxGeometry>
        </mxCell>
        <mxCell id="3YO-DfvYfgbbWXlIfVjV-67" style="edgeStyle=orthogonalEdgeStyle;rounded=0;orthogonalLoop=1;jettySize=auto;html=1;exitX=0.5;exitY=1;exitDx=0;exitDy=0;entryX=0.5;entryY=0;entryDx=0;entryDy=0;strokeWidth=2;" parent="1" target="3YO-DfvYfgbbWXlIfVjV-9" edge="1">
          <mxGeometry relative="1" as="geometry">
            <mxPoint x="334" y="425" as="sourcePoint" />
            <mxPoint x="349" y="485" as="targetPoint" />
            <Array as="points">
              <mxPoint x="334" y="485" />
            </Array>
          </mxGeometry>
        </mxCell>
        <mxCell id="3YO-DfvYfgbbWXlIfVjV-71" value="&lt;div style=&quot;font-size: 24px;&quot;&gt;&lt;font style=&quot;font-size: 25px;&quot;&gt;encoder&lt;/font&gt;&lt;/div&gt;" style="rounded=1;whiteSpace=wrap;html=1;fillColor=#60a917;fontColor=#ffffff;strokeColor=#2D7600;" parent="1" vertex="1">
          <mxGeometry x="-30" y="110" width="140" height="85.5" as="geometry" />
        </mxCell>
        <mxCell id="3YO-DfvYfgbbWXlIfVjV-74" style="edgeStyle=orthogonalEdgeStyle;rounded=0;orthogonalLoop=1;jettySize=auto;html=1;entryX=0;entryY=0.5;entryDx=0;entryDy=0;strokeWidth=2;" parent="1" source="3YO-DfvYfgbbWXlIfVjV-73" target="3YO-DfvYfgbbWXlIfVjV-71" edge="1">
          <mxGeometry relative="1" as="geometry" />
        </mxCell>
        <mxCell id="3YO-DfvYfgbbWXlIfVjV-73" value="" style="shape=image;verticalLabelPosition=bottom;labelBackgroundColor=default;verticalAlign=top;aspect=fixed;imageAspect=0;image=https://jonasloos.github.io/h-space-similarity-explorer/representations/SDXL-Turbo/Cat/4.jpg;" parent="1" vertex="1">
          <mxGeometry x="-260" y="61.75" width="182" height="182" as="geometry" />
        </mxCell>
        <mxCell id="3YO-DfvYfgbbWXlIfVjV-81" style="edgeStyle=orthogonalEdgeStyle;rounded=0;orthogonalLoop=1;jettySize=auto;html=1;exitX=1;exitY=0.5;exitDx=0;exitDy=0;entryX=0.5;entryY=0;entryDx=0;entryDy=0;strokeWidth=2;" parent="1" source="3YO-DfvYfgbbWXlIfVjV-75" target="3YO-DfvYfgbbWXlIfVjV-64" edge="1">
          <mxGeometry relative="1" as="geometry" />
        </mxCell>
        <mxCell id="3YO-DfvYfgbbWXlIfVjV-75" value="&lt;div style=&quot;font-size: 22px;&quot;&gt;&lt;font style=&quot;font-size: 22px;&quot;&gt;Noise&lt;/font&gt;&lt;/div&gt;" style="rounded=0;whiteSpace=wrap;html=1;" parent="1" vertex="1">
          <mxGeometry x="1" y="287.5" width="78" height="35" as="geometry" />
        </mxCell>
        <mxCell id="3YO-DfvYfgbbWXlIfVjV-83" style="edgeStyle=orthogonalEdgeStyle;rounded=0;orthogonalLoop=1;jettySize=auto;html=1;exitX=1;exitY=0.5;exitDx=0;exitDy=0;strokeWidth=2;entryX=0;entryY=0.5;entryDx=0;entryDy=0;" parent="1" source="3YO-DfvYfgbbWXlIfVjV-80" target="3YO-DfvYfgbbWXlIfVjV-84" edge="1">
          <mxGeometry relative="1" as="geometry">
            <mxPoint x="940" y="122.85714285714289" as="targetPoint" />
          </mxGeometry>
        </mxCell>
        <mxCell id="3YO-DfvYfgbbWXlIfVjV-80" value="&lt;font style=&quot;font-size: 25px;&quot;&gt;decoder&lt;/font&gt;" style="rounded=1;whiteSpace=wrap;html=1;fillColor=#60a917;fontColor=#ffffff;strokeColor=#2D7600;" parent="1" vertex="1">
          <mxGeometry x="720" y="110" width="140" height="85.5" as="geometry" />
        </mxCell>
        <mxCell id="3YO-DfvYfgbbWXlIfVjV-84" value="" style="shape=image;verticalLabelPosition=bottom;labelBackgroundColor=default;verticalAlign=top;aspect=fixed;imageAspect=0;image=https://jonasloos.github.io/h-space-similarity-explorer/representations/SDXL-Turbo/Cat/4.jpg;" parent="1" vertex="1">
          <mxGeometry x="910" y="61.75" width="182" height="182" as="geometry" />
        </mxCell>
        <mxCell id="3YO-DfvYfgbbWXlIfVjV-85" value="&lt;font style=&quot;font-size: 22px;&quot;&gt;Representations for downstream tasks&lt;font style=&quot;font-size: 22px;&quot;&gt;&lt;font style=&quot;font-size: 22px;&quot;&gt;&lt;br&gt;&lt;/font&gt;&lt;/font&gt;&lt;/font&gt;" style="rounded=0;whiteSpace=wrap;html=1;" parent="1" vertex="1">
          <mxGeometry x="890" y="580" width="180" height="100" as="geometry" />
        </mxCell>
        <mxCell id="3YO-DfvYfgbbWXlIfVjV-89" value="&lt;font style=&quot;font-size: 30px;&quot;&gt;VAE&lt;/font&gt;" style="text;html=1;align=center;verticalAlign=middle;whiteSpace=wrap;rounded=0;" parent="1" vertex="1">
          <mxGeometry x="385" y="100" width="60" height="30" as="geometry" />
        </mxCell>
        <mxCell id="3YO-DfvYfgbbWXlIfVjV-90" value="&lt;font style=&quot;font-size: 30px;&quot;&gt;U-Net&lt;/font&gt;" style="text;html=1;align=center;verticalAlign=middle;whiteSpace=wrap;rounded=0;" parent="1" vertex="1">
          <mxGeometry x="372.5" y="240" width="85" height="30" as="geometry" />
        </mxCell>
        <mxCell id="8m9qlbFvRUvodFBZdbfK-2" value="" style="endArrow=classic;html=1;rounded=0;strokeColor=#B3B3B3;strokeWidth=2;entryX=0;entryY=0.5;entryDx=0;entryDy=0;" edge="1" parent="1" target="8m9qlbFvRUvodFBZdbfK-1">
          <mxGeometry width="50" height="50" relative="1" as="geometry">
            <mxPoint x="184" y="629" as="sourcePoint" />
            <mxPoint x="1050" y="630" as="targetPoint" />
          </mxGeometry>
        </mxCell>
        <mxCell id="8m9qlbFvRUvodFBZdbfK-1" value="&lt;font style=&quot;font-size: 22px;&quot;&gt;Post Processing&lt;br&gt;&lt;/font&gt;" style="rounded=1;whiteSpace=wrap;html=1;" vertex="1" parent="1">
          <mxGeometry x="740" y="600" width="120" height="60" as="geometry" />
        </mxCell>
      </root>
    </mxGraphModel>
  </diagram>
</mxfile>
